<?xml version="1.0" encoding="UTF-8"?>
<svg id="_Слой_1" data-name="Слой 1" xmlns="http://www.w3.org/2000/svg" viewBox="0 0 100 100">
  <defs>
    <style>
      .cls-1 {
        fill: #fff;
      }

      .cls-2 {
        fill: none;
        stroke: #000;
        stroke-linecap: round;
        stroke-linejoin: round;
        stroke-width: 6px;
      }
    </style>
  </defs>
  <rect class="cls-1" width="100" height="100"/>
  <path class="cls-2" d="M38.33,12.48v11.67"/>
  <path class="cls-2" d="M50,12.48v11.67"/>
  <path class="cls-2" d="M61.67,12.48v11.67"/>
  <path class="cls-2" d="M20.83,35.82h58.33c.77,0,1.52,.31,2.06,.85,.55,.55,.85,1.29,.85,2.06v35c0,1.15-.22,2.29-.66,3.35-.44,1.06-1.08,2.03-1.9,2.84-.81,.81-1.78,1.46-2.84,1.9-1.06,.44-2.2,.66-3.35,.66H26.67c-1.15,0-2.29-.22-3.35-.66-1.06-.44-2.03-1.08-2.84-1.9-.81-.81-1.46-1.78-1.9-2.84-.44-1.06-.66-2.2-.66-3.35V38.73c0-.77,.31-1.52,.85-2.06,.55-.55,1.29-.85,2.06-.85Z"/>
  <path class="cls-2" d="M93.75,41.65l-11.67,8.75"/>
  <path class="cls-2" d="M6.25,41.65l11.67,8.75"/>
</svg>