<?xml version="1.0" encoding="UTF-8"?>
<svg id="_Слой_1" data-name="Слой 1" xmlns="http://www.w3.org/2000/svg" viewBox="0 0 79.36 52.06">
  <defs>
    <style>
      .cls-1 {
        fill: none;
        stroke: #000;
        stroke-linecap: round;
        stroke-linejoin: round;
        stroke-width: 2px;
      }
    </style>
  </defs>
  <path class="cls-1" d="M10.22,18.41c-.44,0-.88-.07-1.28-.21-.4-.14-.75-.34-1.03-.6-.28-.25-.48-.55-.58-.86-.1-.32-.11-.64-.01-.96C9.7,7.39,23.28,1,39.68,1s29.98,6.39,32.36,14.77c.09,.32,.09,.65-.01,.96-.1,.32-.3,.61-.58,.86-.28,.25-.63,.46-1.03,.6-.4,.14-.84,.21-1.28,.21H10.22Z"/>
  <path class="cls-1" d="M69.43,38v4.35c0,2.31-1.25,4.52-3.49,6.16-2.23,1.63-5.26,2.55-8.42,2.55H21.83c-3.16,0-6.18-.92-8.42-2.55-2.23-1.63-3.49-3.85-3.49-6.16v-4.35"/>
  <path class="cls-1" d="M2.49,40.17l14.88-4.35,14.88,4.35,14.88-4.35,14.88,4.35,14.88-4.35"/>
  <path class="cls-1" d="M1,27.12H78.36"/>
</svg>