<?xml version="1.0" encoding="UTF-8"?>
<svg id="_Слой_1" data-name="Слой 1" xmlns="http://www.w3.org/2000/svg" viewBox="0 0 274.08 83">
  <defs>
    <style>
      .cls-1 {
        fill: none;
        stroke: #000;
        stroke-linecap: round;
        stroke-linejoin: round;
        stroke-width: 8px;
      }
    </style>
  </defs>
  <path class="cls-1" d="M38.38,4v12.5"/>
  <path class="cls-1" d="M50.88,4v12.5"/>
  <path class="cls-1" d="M63.38,4v12.5"/>
  <path class="cls-1" d="M19.62,29h62.5c.83,0,1.62,.33,2.21,.92,.59,.59,.92,1.38,.92,2.21v37.5c0,1.23-.23,2.45-.7,3.59-.47,1.14-1.16,2.18-2.03,3.05-.87,.87-1.91,1.56-3.05,2.03-1.14,.47-2.36,.71-3.59,.7H25.88c-1.23,0-2.45-.23-3.59-.7-1.14-.47-2.18-1.16-3.05-2.03-.87-.87-1.56-1.91-2.03-3.05-.47-1.14-.71-2.36-.7-3.59V32.12c0-.83,.33-1.62,.92-2.21,.59-.59,1.38-.92,2.21-.92Z"/>
  <path class="cls-1" d="M97.75,35.25l-12.5,9.38"/>
  <path class="cls-1" d="M4,35.25l12.5,9.38"/>
  <path d="M143.67,52.39c0,1.53-.12,2.89-.37,4.07-.25,1.18-.59,2.23-1.04,3.15l3.33,3.15-1.96,2.07-3.07-2.85c-.79,.72-1.7,1.25-2.74,1.59-1.01,.32-2.15,.48-3.4,.48-1.41,0-2.69-.22-3.85-.67-1.13-.44-2.11-1.13-2.92-2.07-.79-.94-1.41-2.13-1.85-3.59-.42-1.48-.63-3.26-.63-5.33v-2.81c0-2.07,.21-3.84,.63-5.29,.44-1.48,1.06-2.69,1.85-3.63,.81-.94,1.79-1.63,2.92-2.07,1.16-.44,2.44-.67,3.85-.67s2.68,.22,3.81,.67c1.16,.44,2.13,1.13,2.92,2.07,.81,.94,1.43,2.15,1.85,3.63,.44,1.46,.67,3.22,.67,5.29v2.81Zm-15.32,0c0,3.16,.52,5.41,1.55,6.77,1.04,1.33,2.54,2,4.51,2,1.63,0,2.92-.43,3.88-1.29l-3.7-3.48,2.04-2.15,3.22,3.07c.2-.64,.35-1.36,.44-2.15,.12-.81,.18-1.74,.18-2.78v-2.81c0-1.58-.14-2.92-.41-4.03-.25-1.11-.63-2.01-1.15-2.7-.52-.72-1.16-1.23-1.92-1.55-.74-.32-1.6-.48-2.59-.48-1.97,0-3.48,.68-4.51,2.03-1.04,1.33-1.55,3.58-1.55,6.73v2.81Zm35.11,11.36h-2.96v-1.81c-.47,.72-1.07,1.25-1.81,1.59-.71,.35-1.76,.52-3.15,.52-.99,0-1.9-.14-2.74-.41-.81-.27-1.52-.69-2.11-1.26-.59-.59-1.06-1.34-1.41-2.26-.32-.91-.48-2.02-.48-3.33v-11.54h2.96v11.51c0,.94,.11,1.7,.33,2.29,.25,.59,.57,1.06,.96,1.41,.4,.32,.84,.54,1.33,.67,.52,.12,1.05,.18,1.59,.18,1.41,0,2.5-.43,3.29-1.29,.81-.86,1.22-1.94,1.22-3.22v-11.54h2.96v18.5Zm6.25-18.5h2.96v18.5h-2.96v-18.5Zm-.18-7.03h3.33v3.33h-3.33v-3.33Zm22.85,22.72c-.57,1.09-1.41,1.87-2.52,2.37-1.09,.49-2.38,.74-3.88,.74-2.54,0-4.51-.75-5.92-2.26-1.38-1.5-2.07-3.54-2.07-6.11v-2.44c0-2.64,.7-4.67,2.11-6.1,1.41-1.46,3.37-2.18,5.88-2.18,1.41,0,2.65,.25,3.74,.74,1.11,.49,2,1.21,2.66,2.15l-2.33,1.63c-.42-.59-.99-1.05-1.7-1.37-.72-.32-1.51-.48-2.37-.48-1.6,0-2.85,.51-3.74,1.52-.86,.99-1.3,2.36-1.3,4.11v2.44c0,.79,.09,1.53,.26,2.22,.2,.69,.49,1.3,.89,1.81,.42,.52,.95,.92,1.59,1.22,.64,.3,1.41,.44,2.29,.44s1.66-.16,2.4-.48c.74-.32,1.31-.85,1.7-1.59l2.29,1.63Zm18.12-15.69l-7.99,8.18,9.14,10.32h-3.85l-7.47-8.07-1.15,1.22v6.85h-2.96v-25.53h2.96v14.58l7.47-7.55h3.85Zm13.16-7.03c2.98,0,5.19,.56,6.62,1.66,1.46,1.09,2.18,2.7,2.18,4.85,0,.67-.11,1.31-.33,1.92-.2,.62-.48,1.18-.85,1.7-.37,.52-.81,.96-1.33,1.33-.52,.35-1.09,.59-1.7,.74,1.63,.3,2.87,.96,3.74,2,.86,1.04,1.29,2.37,1.29,4,0,.94-.16,1.85-.48,2.74-.3,.86-.79,1.64-1.48,2.33-.69,.67-1.6,1.21-2.74,1.63-1.11,.42-2.48,.63-4.11,.63h-8.62v-25.53h7.81Zm-4.62,22.64h5.44c1.92,0,3.34-.38,4.26-1.15,.91-.79,1.37-1.89,1.37-3.29,0-1.55-.51-2.69-1.52-3.4-1.01-.72-2.58-1.07-4.7-1.07h-4.85v8.92Zm0-11.8h5.18c1.8,0,3.1-.41,3.89-1.22,.79-.81,1.18-1.85,1.18-3.11,0-.57-.09-1.07-.26-1.52-.15-.47-.44-.85-.89-1.15-.42-.32-1-.57-1.74-.74-.72-.17-1.63-.26-2.74-.26h-4.62v7.99Zm19.58-3.81h2.96v18.5h-2.96v-18.5Zm-.18-7.03h3.33v3.33h-3.33v-3.33Zm7.76,7.03h2.37v-4.07h2.96v4.07h4.26v2.66h-4.26v9.4c0,.64,.02,1.2,.07,1.67,.07,.44,.2,.81,.37,1.11,.2,.3,.48,.52,.85,.67,.37,.12,.86,.19,1.48,.19h1.48v2.81h-1.59c-1.09,0-2-.11-2.74-.33-.72-.25-1.29-.6-1.74-1.07-.42-.47-.72-1.06-.89-1.78-.17-.72-.26-1.55-.26-2.52v-10.14h-2.37v-2.66Zm27.63,15.69c-.64,1.13-1.48,1.94-2.52,2.41-1.01,.47-2.33,.7-3.96,.7-2.49,0-4.44-.74-5.85-2.22-1.38-1.5-2.07-3.55-2.07-6.14v-2.44c0-2.64,.6-4.67,1.81-6.1,1.23-1.46,3.07-2.18,5.51-2.18s4.3,.72,5.51,2.15c1.21,1.43,1.81,3.48,1.81,6.14v1.92h-11.69v.52c0,.79,.1,1.53,.3,2.22s.48,1.3,.85,1.81c.4,.52,.89,.92,1.48,1.22s1.3,.44,2.11,.44c1.21,0,2.15-.17,2.81-.52,.67-.35,1.2-.86,1.59-1.55l2.29,1.63Zm-7.07-13.32c-1.43,0-2.49,.44-3.18,1.33-.69,.86-1.08,2.07-1.18,3.63h8.69c-.07-1.55-.47-2.76-1.18-3.63-.69-.89-1.74-1.33-3.14-1.33Z"/>
</svg>